<svg xmlns="http://www.w3.org/2000/svg" width="1200" height="720" viewBox="0 0 1200 720" role="img" aria-label="Check the property, lease and payment trail separately">
  <style>.t{font-family:-apple-system,BlinkMacSystemFont,"PingFang TC","Microsoft JhengHei",sans-serif;fill:#142033}.ey{font-size:23px;font-weight:700;fill:#08756f}.h{font-size:46px;font-weight:760}.label{font-size:29px;font-weight:760}.small{font-size:21px;fill:#58687b}.card{fill:#fff;stroke:#d8e0ea;stroke-width:2}</style>
  <rect width="1200" height="720" fill="#f4f7f8"/><text class="t ey" x="76" y="78">Estate property rent · Check the facts</text><text class="t h" x="76" y="142">Check three separate tracks</text>
  <rect class="card" x="76" y="222" width="304" height="338" rx="8"/><path d="m138 330 90-76 90 76v120H138z" fill="#f7e8eb" stroke="#a30d23" stroke-width="7" stroke-linejoin="round"/><path d="M194 450v-72h68v72" fill="none" stroke="#a30d23" stroke-width="7"/><text class="t label" x="228" y="505" text-anchor="middle">Property</text><text class="t small" x="228" y="545" text-anchor="middle">Title · Co-ownership · Address</text>
  <rect class="card" x="448" y="222" width="304" height="338" rx="8"/><rect x="526" y="258" width="148" height="194" rx="8" fill="#e5f2f0" stroke="#08756f" stroke-width="7"/><path d="M556 310h88M556 350h88M556 390h58" stroke="#08756f" stroke-width="8" stroke-linecap="round"/><text class="t label" x="600" y="505" text-anchor="middle">Lease</text><text class="t small" x="600" y="545" text-anchor="middle">Term · Deposit · Repairs</text>
  <rect class="card" x="820" y="222" width="304" height="338" rx="8"/><rect x="884" y="280" width="176" height="142" rx="8" fill="#e7eef7" stroke="#315f8f" stroke-width="7"/><path d="M914 328h116M914 370h70" stroke="#315f8f" stroke-width="8" stroke-linecap="round"/><circle cx="1030" cy="380" r="31" fill="#315f8f"/><path d="M1017 380h26M1030 367v26" stroke="#fff" stroke-width="6"/><text class="t label" x="972" y="505" text-anchor="middle">Payments</text><text class="t small" x="972" y="545" text-anchor="middle">Month · Account · Record</text>
  <path d="M380 391h68M752 391h68" stroke="#9ba8b6" stroke-width="8" stroke-linecap="round"/><path d="m430 374 18 17-18 17M802 374l18 17-18 17" fill="none" stroke="#9ba8b6" stroke-width="8" stroke-linecap="round"/>
  <text class="t small" x="600" y="634" text-anchor="middle">Align the three tracks before choosing an interim manager</text>
</svg>
